<?xml version="1.0" encoding="UTF-8" standalone="no"?>
<svg
   width="865.68793"
   zoomAndPan="magnify"
   viewBox="0 0 649.26595 718.32311"
   height="957.76416"
   preserveAspectRatio="xMidYMid"
   version="1.0"
   id="svg232"
   sodipodi:docname="logo.svg"
   inkscape:version="1.3.2 (091e20e, 2023-11-25, custom)"
   xml:space="preserve"
   xmlns:inkscape="http://www.inkscape.org/namespaces/inkscape"
   xmlns:sodipodi="http://sodipodi.sourceforge.net/DTD/sodipodi-0.dtd"
   xmlns="http://www.w3.org/2000/svg"
   xmlns:svg="http://www.w3.org/2000/svg"><sodipodi:namedview
     id="namedview232"
     pagecolor="#505050"
     bordercolor="#eeeeee"
     borderopacity="1"
     inkscape:showpageshadow="0"
     inkscape:pageopacity="0"
     inkscape:pagecheckerboard="0"
     inkscape:deskcolor="#d1d1d1"
     inkscape:zoom="0.64"
     inkscape:cx="292.1875"
     inkscape:cy="600.78125"
     inkscape:window-width="1920"
     inkscape:window-height="1009"
     inkscape:window-x="-8"
     inkscape:window-y="-8"
     inkscape:window-maximized="1"
     inkscape:current-layer="g268"
     showgrid="false"
     showguides="true"><sodipodi:guide
       position="-7310.537,-2755.7999"
       orientation="0,-1"
       id="guide10"
       inkscape:locked="false" /></sodipodi:namedview><defs
     id="defs54"><clipPath
       id="fd75e31034"><path
         d="M 878.13281,100.85938 H 1342.3828 V 586 H 878.13281 Z m 0,0"
         clip-rule="nonzero"
         id="path2" /></clipPath><clipPath
       id="bf2767384f"><path
         d="m 1016,154 h 253 v 460.60937 h -253 z m 0,0"
         clip-rule="nonzero"
         id="path3" /></clipPath></defs><g
     id="g269"
     transform="matrix(1.4980873,0,0,1.4980873,-1350.5233,-337.0685)"><g
       clip-path="url(#fd75e31034)"
       id="g117"
       transform="matrix(0.93354243,0,0,0.93354243,81.723713,130.78254)"><path
         d="m 1342.2305,427.51562 c -0.2188,0 -3.4258,4.32422 -7.1289,9.61329 -31.2305,44.60156 -75.3047,74.875 -123.2305,84.63281 -4.8047,0.98047 -7.1914,2.14844 -8.5117,4.16406 -2.6719,4.08203 -9.1953,8.73828 -16.293,11.62891 -3.8242,1.55859 -8.1133,4.59765 -11.1641,7.91797 -5.9296,6.4375 -14.1796,11.16015 -22.6914,12.98828 l -6.2343,1.33593 c 0.4414,8.97657 1.9765,17.60157 6.4804,25.5 0,0 7.2852,-1.20703 19.75,-4.11328 59.7032,-13.92968 116.2305,-53.97656 145.0118,-102.74218 9.5117,-16.11719 25.9257,-50.92579 24.0117,-50.92579 z"
         id="path83"
         style="fill:#af2301;fill-opacity:1" /><path
         d="M 1196.7305,544.43359"
         id="path84" /><path
         d="m 1112.6641,100.98828 c -109.0039,2.57031 -210.98832,85.32031 -230.89848,201.25391 -22.0039,128.14062 58.14844,251.85937 181.20708,279.6914 v 0.004 c 9.1757,2.07422 13.2382,1.71094 13.2382,1.71094 -14.4023,-22.4375 -16.4882,-47.47657 1.5821,-72.57422 2.2031,-3.0625 4.5898,-5.03516 4.4297,-5.11719 -0.1641,-0.082 -3.2149,-1.43359 -6.7774,-3.00781 C 998.76562,469.10156 948.63281,375.89062 960.66797,289.54297 976.32031,177.21484 1084.2773,95.164062 1190.2813,115.03125 c 9.0078,1.6875 7.7109,0.71875 -4.3399,-3.23828 -20.7226,-6.80859 -41.8008,-10.29688 -62.707,-10.80469 -3.5313,-0.0859 -7.0547,-0.0859 -10.5703,0 z"
         id="path85"
         style="fill:#af2301;fill-opacity:1" /><g
         id="g114"
         style="fill:#ffffff"><path
           d="m 1196.7305,544.43359 c 0.2383,0 0.4687,0.0742 0.6523,0.21094 0.1875,0.13281 0.336,0.32813 0.4102,0.55469 l 1.7734,5.43359 5.6992,0.008 c 0.2422,0 0.4688,0.082 0.6563,0.21485 0.1875,0.13672 0.332,0.32812 0.4023,0.55859 0.078,0.23047 0.074,0.46875 0,0.69141 0,0 0,0.004 0,0.004 -0.07,0.21875 -0.207,0.41797 -0.4023,0.5586 l -4.5742,3.23047 1.7226,5.57031 c 0.074,0.23047 0.066,0.46875 0,0.6875 v 0.004 0 c -0.07,0.21875 -0.207,0.41406 -0.4023,0.55468 -0.1954,0.14453 -0.4258,0.21485 -0.6602,0.21485 -0.2266,0 -0.457,-0.0664 -0.6523,-0.21094 l -4.6172,-3.31641 -4.6172,3.31641 c -0.1992,0.14453 -0.4297,0.21484 -0.6602,0.21484 -0.2304,0 -0.4609,-0.0742 -0.6562,-0.21875 -0.1953,-0.14062 -0.336,-0.33593 -0.4063,-0.55468 -0.07,-0.21875 -0.074,-0.46094 0,-0.69141 l 1.7266,-5.57031 -4.5781,-3.23047 c -0.1954,-0.14063 -0.3282,-0.33594 -0.3985,-0.55469 0,-0.004 0,-0.008 0,-0.0156 -0.07,-0.21875 -0.074,-0.45704 0,-0.6836 0.074,-0.23047 0.2188,-0.42187 0.4063,-0.55859 0.1836,-0.13672 0.4101,-0.21485 0.6523,-0.21485 l 5.668,-0.0117 1.8086,-5.42969 c 0.074,-0.23047 0.2187,-0.42188 0.4062,-0.5586 0.1836,-0.13281 0.4141,-0.21093 0.6563,-0.21093 z"
           id="path86"
           style="fill:#ffffff" /><path
           d="m 1232.5664,528.24219 c 0.3125,0 0.5899,0.19922 0.6875,0.49609 l 1.1484,3.50391 3.6758,0.008 c 0.3125,0.004 0.5899,0.20312 0.6836,0.5 0.098,0.29687 -0.01,0.62109 -0.2578,0.80859 l -2.9531,2.08594 1.1094,3.59375 c 0.094,0.30078 -0.01,0.62109 -0.2618,0.80469 -0.1289,0.0937 -0.2773,0.14062 -0.4257,0.14062 -0.1485,0 -0.2969,-0.043 -0.4219,-0.13672 l -2.9844,-2.14062 -2.9766,2.14062 c -0.2539,0.1836 -0.5976,0.1836 -0.8515,-0.004 -0.25,-0.1836 -0.3594,-0.50391 -0.2617,-0.80469 l 1.1132,-3.59375 -2.957,-2.08594 c -0.2539,-0.1875 -0.3555,-0.51172 -0.2578,-0.80859 0.098,-0.29688 0.3711,-0.49609 0.6836,-0.5 l 3.6562,-0.008 1.168,-3.50391 c 0.098,-0.29687 0.375,-0.49609 0.6836,-0.49609 z"
           id="path87"
           style="fill:#ffffff" /><path
           d="m 1010.3672,487.48828 c 1.0078,0 1.8984,0.64453 2.2148,1.60156 l 3.6953,11.3086 11.8633,0.0156 c 1.0078,0.0117 1.8985,0.66016 2.2071,1.61328 0.3125,0.96094 -0.024,2.01172 -0.836,2.60938 l -9.5312,6.72656 3.5898,11.59375 c 0.3047,0.96094 -0.043,2.01172 -0.8516,2.60156 -0.4101,0.30078 -0.8906,0.44922 -1.371,0.44922 -0.4766,0 -0.9532,-0.14844 -1.3633,-0.4414 l -9.6172,-6.91016 -9.6133,6.91016 c -0.82031,0.58984 -1.91796,0.58984 -2.73437,-0.008 -0.8125,-0.58984 -1.15625,-1.64062 -0.85156,-2.60156 l 3.58593,-11.59375 -9.52734,-6.72656 c -0.8125,-0.59766 -1.14844,-1.64844 -0.83984,-2.60938 0.3125,-0.95312 1.19922,-1.60156 2.20312,-1.61328 l 11.80466,-0.0156 3.7578,-11.3086 c 0.3204,-0.95703 1.211,-1.60156 2.2149,-1.60156 z"
           id="path88"
           style="fill:#ffffff" /><path
           d="m 951.28516,430.47656 c 0.83593,0 1.57421,0.53906 1.83984,1.33203 l 3.06641,9.38282 9.84375,0.0156 c 0.83593,0.008 1.57421,0.54688 1.83203,1.33984 0.25781,0.79688 -0.0234,1.66797 -0.69532,2.16407 l -7.90625,5.58203 2.97266,9.62109 c 0.25391,0.79688 -0.0312,1.66406 -0.70703,2.15625 -0.33984,0.25 -0.73438,0.3711 -1.13672,0.3711 -0.39453,0 -0.78906,-0.1211 -1.12891,-0.36329 l -7.98046,-5.73046 -7.97657,5.73046 c -0.67968,0.48829 -1.59375,0.48829 -2.26953,-0.008 -0.67578,-0.49219 -0.96094,-1.35937 -0.70703,-2.15625 l 2.97656,-9.62109 -7.90625,-5.58203 c -0.67187,-0.4961 -0.95312,-1.36719 -0.69531,-2.16407 0.25781,-0.79296 0.99609,-1.33203 1.82813,-1.33984 l 9.79687,-0.0156 3.11719,-9.38282 c 0.26172,-0.79297 1,-1.32812 1.83594,-1.32812 z"
           id="path89"
           style="fill:#ffffff" /><path
           d="m 924.86719,356.23828 v 0.004 c 1.05078,0 1.98437,0.67578 2.3164,1.67578 l 3.85547,11.80078 12.37891,0.0156 c 1.05469,0.0117 1.98437,0.6875 2.30469,1.6875 0.32421,1 -0.0274,2.09766 -0.875,2.72266 l -9.94532,7.02344 3.74219,12.09765 c 0.32031,1 -0.0391,2.09766 -0.88672,2.71485 -0.42969,0.3125 -0.92969,0.46875 -1.42969,0.46875 -0.5,0 -0.99609,-0.15235 -1.42187,-0.46094 l -10.03906,-7.20703 -10.03516,7.20703 c -0.85547,0.61328 -2.00391,0.60938 -2.85547,-0.0117 -0.84765,-0.61719 -1.20703,-1.71094 -0.88672,-2.71094 l 3.74219,-12.10156 -9.94531,-7.02344 c -0.84766,-0.62109 -1.19922,-1.71875 -0.875,-2.72265 0.32812,-0.9961 1.2539,-1.67578 2.30078,-1.6836 l 12.32031,-0.0195 3.92188,-11.80078 c 0.33203,-1 1.26172,-1.67187 2.3125,-1.67187 z"
           id="path90"
           style="fill:#ffffff" /><path
           d="m 926.90234,273.52734 c 0.70313,0.0156 1.40625,0.0625 2.10547,0.14453 0.69922,0.082 1.39844,0.19532 2.08594,0.33985 0.69141,0.14844 1.37109,0.32812 2.04297,0.53906 0.67187,0.21094 1.33594,0.45313 1.98437,0.72656 0.1211,0.043 0.22657,0.10547 0.32422,0.1875 0.0977,0.0859 0.17969,0.17969 0.24219,0.28907 0.0625,0.11328 0.10156,0.23046 0.125,0.35546 0.0195,0.125 0.0156,0.25 -0.004,0.375 -0.0234,0.125 -0.0703,0.24219 -0.13672,0.34766 -0.0625,0.10938 -0.14453,0.20703 -0.24609,0.28516 -0.0977,0.082 -0.20703,0.14062 -0.32812,0.17968 -0.1211,0.0391 -0.2461,0.0625 -0.3711,0.0586 -0.30859,0.004 -0.61719,0.0117 -0.92187,0.0351 -0.3086,0.0195 -0.61328,0.0508 -0.92188,0.0899 -0.30469,0.043 -0.61328,0.0898 -0.91406,0.14453 -0.30469,0.0586 -0.60547,0.125 -0.90625,0.19922 -0.29688,0.0742 -0.59375,0.15625 -0.89063,0.24609 -0.29296,0.0937 -0.58593,0.19141 -0.875,0.30078 -0.28515,0.10938 -0.57031,0.22266 -0.85546,0.34766 -0.28125,0.125 -0.5586,0.25781 -0.83204,0.39844 -0.27734,0.14062 -0.54687,0.29297 -0.8125,0.44922 -0.26562,0.15625 -0.52734,0.32031 -0.78125,0.49218 -0.25781,0.17188 -0.50781,0.34766 -0.75781,0.53516 -0.24609,0.18359 -0.48828,0.37891 -0.72265,0.57812 -0.23438,0.19922 -0.46485,0.40625 -0.6875,0.6211 -0.22266,0.21094 -0.4375,0.43359 -0.64844,0.65625 -0.20703,0.22656 -0.41406,0.46094 -0.60938,0.69531 -0.19922,0.23828 -0.38672,0.48047 -0.57031,0.73047 -0.18359,0.24609 -0.35937,0.5 -0.52734,0.75781 -0.16797,0.25781 -0.33203,0.52344 -0.48438,0.79297 -0.15234,0.26563 -0.30078,0.53906 -0.4375,0.8125 -0.13672,0.27734 -0.26562,0.55859 -0.38672,0.84375 -0.125,0.28125 -0.23828,0.57031 -0.33984,0.85938 -0.10547,0.28906 -0.19922,0.58203 -0.28906,0.8789 -0.0899,0.29688 -0.16797,0.59375 -0.23828,0.89453 -0.0703,0.30078 -0.13672,0.60157 -0.1875,0.90625 -0.0547,0.30469 -0.10157,0.60938 -0.13672,0.91797 -0.0352,0.30469 -0.0625,0.61328 -0.0781,0.91797 -0.0195,0.3125 -0.0273,0.62109 -0.0273,0.92969 0,0.30859 0.008,0.61328 0.0273,0.92187 0.0156,0.3086 0.043,0.61719 0.0781,0.92578 0.0351,0.30469 0.082,0.60938 0.13281,0.91407 0.0508,0.30468 0.11328,0.60547 0.18359,0.90625 0.0703,0.30078 0.14844,0.60156 0.23828,0.89843 0.0859,0.29688 0.17969,0.58594 0.28516,0.87891 0.10547,0.28906 0.21875,0.57813 0.33984,0.85938 0.11719,0.28515 0.2461,0.5664 0.38672,0.84375 0.13672,0.27734 0.28125,0.55078 0.4336,0.8164 0.15234,0.26953 0.3125,0.53125 0.48047,0.78906 0.16796,0.26172 0.33984,0.51563 0.52343,0.76172 0.1836,0.25 0.3711,0.4961 0.57032,0.73047 0.19531,0.23828 0.39843,0.46875 0.60937,0.69531 0.21094,0.22657 0.42578,0.44922 0.64844,0.66016 0.22265,0.21484 0.45312,0.42188 0.6875,0.625 0.23437,0.19922 0.47265,0.39063 0.71875,0.57813 0.24609,0.1875 0.49609,0.36718 0.7539,0.53906 0.25782,0.17187 0.51563,0.33594 0.78125,0.49219 0.26563,0.15625 0.53516,0.30468 0.8086,0.44921 0.27734,0.14063 0.55078,0.27344 0.83594,0.40235 0.28125,0.125 0.5664,0.23828 0.85546,0.34765 0.28907,0.10938 0.57813,0.21094 0.8711,0.30079 0.29687,0.0937 0.59375,0.17968 0.89453,0.2539 0.30078,0.0742 0.59766,0.14063 0.90234,0.19922 0.30469,0.0586 0.60938,0.10547 0.91407,0.14453 0.30468,0.0391 0.60937,0.0742 0.91796,0.0937 0.3086,0.0234 0.61719,0.0352 0.92579,0.043 0.30859,0.004 0.61718,0 0.92578,-0.0156 0.30859,-0.0117 0.61718,-0.0352 0.92187,-0.0664 0.3086,-0.0312 0.61328,-0.0742 0.91797,-0.12109 0.30078,-0.0508 0.60547,-0.10157 0.90625,-0.16797 0.30469,-0.0664 0.60156,-0.14453 0.89844,-0.23047 0.29687,-0.082 0.59375,-0.17578 0.88281,-0.27344 0.29297,-0.10156 0.58203,-0.21094 0.86719,-0.32812 0.28515,-0.11719 0.5664,-0.24219 0.84375,-0.375 0.27734,-0.13282 0.55469,-0.27344 0.82422,-0.42579 0.26953,-0.14843 0.53515,-0.30468 0.79297,-0.46875 0.10937,-0.0547 0.22265,-0.0937 0.34765,-0.10937 0.1211,-0.0195 0.23828,-0.0156 0.35938,0.008 0.12109,0.0234 0.23047,0.0664 0.33984,0.12891 0.10547,0.0586 0.19922,0.13672 0.28125,0.22656 0.0937,0.082 0.17188,0.17578 0.23438,0.28125 0.0586,0.10547 0.10546,0.21875 0.1289,0.34375 0.0195,0.12109 0.0195,0.24609 0.004,0.36719 -0.0195,0.12109 -0.0586,0.23437 -0.11719,0.34375 -0.39453,0.58594 -0.81641,1.15234 -1.26562,1.69531 -0.44532,0.54688 -0.91797,1.07031 -1.41407,1.57031 -0.5,0.5 -1.01562,0.97657 -1.55859,1.42969 -0.54297,0.45313 -1.10156,0.875 -1.68359,1.27344 -0.58204,0.40234 -1.17969,0.76953 -1.79688,1.11328 -0.61719,0.34375 -1.24609,0.65625 -1.89453,0.94141 -0.64453,0.28125 -1.30469,0.53125 -1.97266,0.7539 -0.67187,0.21875 -1.35156,0.41016 -2.03515,0.56641 -0.6875,0.16015 -1.38282,0.28125 -2.08203,0.37109 -0.69922,0.0937 -1.39844,0.15235 -2.10547,0.17969 -0.70313,0.0273 -1.41016,0.0195 -2.11328,-0.0195 -0.70313,-0.043 -1.40625,-0.11719 -2.10157,-0.22266 -0.69531,-0.10547 -1.38672,-0.24609 -2.07031,-0.41797 -0.68359,-0.17187 -1.35937,-0.375 -2.02344,-0.60937 -0.66406,-0.23828 -1.3164,-0.5 -1.95703,-0.79688 -0.64062,-0.29687 -1.26562,-0.625 -1.87109,-0.98047 -0.60938,-0.35546 -1.20313,-0.73828 -1.77344,-1.15234 -0.57422,-0.41016 -1.125,-0.84766 -1.65625,-1.30859 -0.53516,-0.46485 -1.04297,-0.95313 -1.52734,-1.46485 -0.48828,-0.51172 -0.94922,-1.04297 -1.38282,-1.59765 -0.4375,-0.55469 -0.84375,-1.12891 -1.22656,-1.72266 -0.38281,-0.59375 -0.73828,-1.20312 -1.0625,-1.83203 -0.32422,-0.625 -0.61719,-1.26563 -0.8789,-1.91797 -0.26563,-0.65625 -0.5,-1.32031 -0.69922,-1.99609 -0.20313,-0.67578 -0.3711,-1.35938 -0.51172,-2.05078 -0.13672,-0.69532 -0.24219,-1.39063 -0.3125,-2.09375 -0.0703,-0.70313 -0.10938,-1.40625 -0.11328,-2.11329 -0.004,-0.70312 0.0234,-1.41015 0.0859,-2.11328 0.0586,-0.70312 0.15235,-1.39843 0.28125,-2.09375 0.125,-0.69531 0.28516,-1.3789 0.47266,-2.05859 0.19531,-0.67969 0.41797,-1.35156 0.67188,-2.00781 0.2539,-0.66016 0.53906,-1.30469 0.85156,-1.9336 0.3164,-0.63281 0.66015,-1.25 1.03125,-1.84765 0.375,-0.59766 0.77344,-1.17969 1.20312,-1.73828 0.42578,-0.5625 0.87891,-1.10157 1.35547,-1.6211 0.48047,-0.51953 0.98047,-1.01172 1.50391,-1.48437 0.52734,-0.47266 1.07031,-0.91797 1.63672,-1.33985 0.57031,-0.41797 1.15625,-0.80859 1.75781,-1.17578 0.60156,-0.36328 1.22266,-0.69922 1.85937,-1.00781 0.63282,-0.30469 1.28125,-0.58203 1.94141,-0.82422 0.66406,-0.24609 1.33203,-0.46094 2.01563,-0.64453 0.67968,-0.17969 1.37109,-0.33203 2.0625,-0.44922 0.69531,-0.11719 1.39453,-0.19922 2.10156,-0.25391 0.69922,-0.0469 1.40234,-0.0664 2.10937,-0.0508 z"
           id="path91"
           style="fill:#ffffff" /><path
           d="m 946.98437,210.44922 v 0.004 c 0.72266,0 1.36329,0.46094 1.58985,1.14844 l 2.65234,8.11328 8.51172,0.0156 c 0.72656,0.004 1.36719,0.47265 1.58594,1.15625 0.22265,0.6875 -0.0156,1.4414 -0.59766,1.87109 l -6.83984,4.82813 2.57031,8.32031 c 0.22266,0.6875 -0.0273,1.44141 -0.60937,1.86328 -0.29297,0.21875 -0.64063,0.32422 -0.98438,0.32422 -0.34375,0 -0.68359,-0.10547 -0.97656,-0.31641 l -6.90235,-4.95703 -6.89843,4.95703 c -0.58985,0.42188 -1.37891,0.42188 -1.96485,-0.008 -0.58203,-0.42578 -0.82812,-1.17578 -0.60937,-1.86328 l 2.57422,-8.32031 -6.83985,-4.82813 c -0.58203,-0.42969 -0.82422,-1.18359 -0.60156,-1.875 0.22656,-0.68359 0.86328,-1.15234 1.58203,-1.15625 l 8.47266,-0.0117 2.69531,-8.11718 c 0.22656,-0.6875 0.86719,-1.14844 1.58984,-1.14844 z"
           id="path92"
           style="fill:#ffffff" /><path
           d="m 996.13672,153.0625 c 0.4414,0 0.83594,0.28125 0.97656,0.70703 l 1.62891,4.98438 5.23051,0.008 c 0.4453,0.004 0.8359,0.29297 0.9726,0.71484 0.1367,0.42188 -0.01,0.88281 -0.3672,1.14844 l -4.2031,2.96484 1.582,5.11328 c 0.1328,0.42579 -0.019,0.88672 -0.375,1.14454 -0.1836,0.13281 -0.3945,0.20312 -0.6054,0.20312 -0.211,0 -0.4219,-0.0664 -0.6016,-0.19922 l -4.23828,-3.04297 -4.24219,3.04297 c -0.35937,0.26172 -0.84375,0.26172 -1.20312,-0.004 -0.35938,-0.25782 -0.51172,-0.71875 -0.37891,-1.14454 l 1.58203,-5.11328 -4.20312,-2.96484 c -0.35547,-0.26563 -0.50782,-0.72656 -0.3711,-1.14844 0.14063,-0.42187 0.53125,-0.71094 0.97656,-0.71094 l 5.20313,-0.0117 1.65625,-4.98438 c 0.14062,-0.42187 0.53516,-0.70703 0.98047,-0.70703 z"
           id="path93"
           style="fill:#ffffff" /></g></g><g
       clip-path="url(#bf2767384f)"
       id="g268"
       transform="matrix(0.93354243,0,0,0.93354243,81.723713,130.78254)"><path
         fill="#000000"
         d="m 1145.0703,155.00391 c -1.4726,-0.0625 -2.9492,-0.0547 -4.4297,0.0234 v 0 c -15.2031,0.79688 -30.2383,9.07422 -35.9687,25.29297 -1.5469,4.38281 -1.9922,8.30469 -2.2852,11.69531 -5.4023,-2.89062 -13.1484,-6.49218 -23.8945,-8.58203 -8.5547,-1.66406 -18.2031,-1.97265 -27.6563,1.125 -9.457,3.09375 -18.5781,9.70313 -25.6875,21.03907 l -0.043,0.0703 -0.035,0.0664 c -15.2148,26.3711 -8.207,50.27735 2.5391,66.47266 9.4883,14.30078 20.4258,22.16797 23.1875,24.08984 V 353.625 c -14.8711,32.64844 8.0429,64.30078 28.3437,73.15234 4.0899,1.78125 8.8399,3.32422 8.8399,3.32422 -0.1602,2.54688 -0.5039,7.85547 -0.5039,7.85547 -3.5704,0.28125 -6.3594,3.60547 -6.3633,7.3125 0.016,3.40625 2.0312,5.52344 4.2578,6.82813 0,0 0.8125,8.98046 -2.3633,10.62109 -11.207,5.78125 -12.9531,20.65234 -3.7109,31.64062 3.9765,4.73438 4.4297,4.60157 6.1367,-1.78906 1.0547,-3.9375 3.2226,-7.17969 7.9883,-11.94922 3.2968,-3.30078 6.3906,-7.07812 6.3906,-7.07812 0,0 -1.3828,-5.41016 -4.7969,-8.40625 -3.6015,-3.16406 -3.1953,-12.9961 -3.1953,-12.9961 2.6602,-1.41015 4.0742,-3.83593 4.3359,-6.87109 0,-2.91797 -1.6953,-5.30469 -3.4531,-6.24219 l 0.836,-7.55859 c 4.3046,1.54687 7.9609,2.44531 12.4375,3.41016 3.2148,0.66015 3.2382,0.73046 3.2382,10.39062 V 455 l 10.6407,10.58203 c 14.2968,14.21484 14.289,16.17969 -0.039,17.16797 -5.5078,0.37891 -10.8086,0.91016 -11.7773,1.17969 -1.2618,0.34765 -1.6602,-0.27344 -1.3985,-2.16407 0.5235,-3.76953 -1.0508,-3.3125 -7.1719,2.07813 -7.207,6.34766 -11.6757,16.29297 -9.8242,19.28516 0,0 2.0235,-0.87891 5.3125,-3.29297 6.918,-5.08203 12.4453,-7.14453 22.0196,-8.21094 10.7304,-1.19531 12.0156,-0.26953 7.1289,5.14062 -2.1953,2.42969 -4.5078,5.34766 -5.1446,6.48047 -0.707,1.26563 -3.5781,2.5 -7.4492,3.20703 -17.164,3.1211 -23.4844,12.19141 -27.9648,16.46094 1.2929,-3.76172 3.3398,-7.54687 4.4453,-11.13672 -10.793,3.91407 -25.1289,38.70703 -6.6445,66.57813 13.2187,19.92969 35.5507,31.32812 68.5,34.96484 v 0 c 10.4531,1.15625 21.789,1.60938 21.789,0.875 0,-0.26562 -2.8437,-2.08594 -6.3203,-4.04687 -14.5625,-8.22657 -24.3047,-27.30078 -24.3047,-47.58985 v -8.0039 c 13.7422,-0.52735 25.8789,-3.98828 33.5938,-16.375 0,0 -3.5,-0.94922 -10.4961,2.21484 -10.3633,4.69141 -23.8047,7.57031 -39,1.80078 -5.7422,-2.18359 -10.8242,-3.66797 -11.1016,-3.84765 -0.2812,-0.17969 0.336,-2.09766 1.3672,-4.26172 3.1641,-6.64063 18.1914,-7.46094 35.2539,-1.92969 27.7891,9.01562 51.7383,-1.37891 55.7969,-24.21875 0.4648,-2.625 1.9726,-5.38281 3.8515,-7.375 4.9102,-5.21094 7.5157,-12.57813 7.5704,-21.53125 0.043,-6.16406 -2.3243,-11.30078 -2.3243,-11.30078 0,0 -1.5429,2.68359 -3.8867,4.80078 -5.5078,4.98437 -12.6523,8.75781 -20.5664,10.875 -8.8164,2.35547 -8.7109,2.41797 -8.6015,-5.33984 0.1015,-7.12891 -2.6055,-16.67579 -6.0079,-21.20704 -0.5507,-0.73437 -1.8945,-2.03906 -1.8945,-2.03906 0,0 0.1524,2.67188 0.4024,8.39844 0.2382,5.43359 -0.3321,11.73047 -1.4727,16.28516 -1.8008,7.17968 -2.5195,17.29296 -1.2305,17.29296 0.3477,0 1.8047,-0.75 3.2383,-1.66015 1.4336,-0.91406 5.7227,-2.29297 9.5274,-3.0625 9.4296,-1.91016 19.5585,-5.5 22.1601,-7.85547 3.3438,-3.02734 3.4688,-1.42188 0.4063,5.1875 -4.9375,10.66797 -13.1094,14.96484 -30.3086,15.94141 l -9.0664,0.51562 -1.2774,-5.94141 c -0.6992,-3.26953 -2.6172,-8.94531 -4.2617,-12.61328 l -3.5039,-7.08203 -6.7656,2.38672 c -4.0039,1.08594 -9,2.88281 -11.1055,3.98438 -5.1211,2.6875 -5.1914,0.33203 -0.2734,-9.51954 4.1445,-8.30078 12.039,-16.68359 21.8711,-23.23437 5.207,-3.26953 9.6875,-6.51172 13.1562,-11.55469 l 4.0781,2.64063 c 5.5196,3.57422 8.1953,15.17578 8.8477,22.35937 l 0.6211,6.89453 4.8164,-1.69922 c 24,-8.47265 32.1367,-27.67578 21.3789,-50.4375 l -3.1406,-6.63671 5.9414,-5.34375 c 11.7226,-10.55079 18.1679,-25.48829 16.9062,-42.32813 -0.1875,-2.46484 -1.2344,-8.92969 -1.457,-16.94531 v -0.008 -53.3711 c 2.6797,-1.92969 15.3086,-9.61328 24.4453,-23.92969 20.8867,-32.73046 11.0469,-93.91015 -50.2422,-97.67187 -14.1601,-0.87109 -24.2031,1.1875 -28.6641,2.22656 -1.2578,-3.0625 -3.3125,-7.125 -7.4609,-11.52734 -6.7656,-7.17969 -16.7461,-11.06641 -27.0586,-11.50781 z m -3.6367,8.72656 c 9.2422,-0.33594 18.4687,2.79687 24.2187,8.89844 5.2422,5.5625 6.8243,11.61718 6.8243,11.61718 l 1.1328,4.39063 4.3711,-1.20703 c 0,0 13.5273,-3.71875 29.7265,-2.72657 54.2735,3.33594 60.8203,56.51563 43.2891,83.98829 -6.8555,10.73437 -17.6055,18.07031 -21.5898,21.20703 -4.543,-2.875 -14.8204,-8.75 -31.043,-14.12891 8.668,-15.11328 10.4648,-32.21094 11.8086,-49.27344 -9.2578,31.44922 -16.6914,36.21485 -30.4922,44.16407 -4.7891,-1.07422 -9.832,-2.05079 -15.2422,-2.84766 1.4414,-12.49609 2.082,-18.64063 1.1758,-43.79297 -2.1445,15.37891 -6.1602,29.76953 -15.5625,42.15625 -0.8945,-0.0742 -1.7735,-0.15625 -2.6836,-0.21875 -5.2891,-0.36719 -10.4297,-0.44141 -15.4024,-0.28125 -9.332,-12.125 -11.621,-27.26172 -13.7617,-42.03125 -2.7734,22.31641 -2.1133,29.03906 -0.5117,43.17969 -5.8828,0.74609 -11.4141,1.8164 -16.6406,3.0664 -13.0078,-5.46093 -21.1563,-14.40625 -28.4297,-43.61328 1.5742,29.02344 4.1133,38 10.3867,49.04297 -13.8594,5.09375 -23.3398,10.67969 -27.6328,13.44141 -4.1797,-3.17969 -13.2148,-10.73828 -20.3477,-21.48828 -9.5898,-14.44532 -15.7304,-33.625 -2.2734,-57.01172 6.1289,-9.73438 13.3008,-14.76563 20.8516,-17.23828 7.5703,-2.48047 15.664,-2.30078 23.1875,-0.83594 15.0468,2.92578 27.25,10.87891 27.25,10.87891 l 7.8086,5.14843 -0.9297,-9.30859 c 0,0 -0.711,-7.55469 2.1367,-15.62109 4.582,-12.96094 16.4922,-19.125 28.375,-19.55469 z m -10.6563,110.92187 c 1.9766,1.4375 3.9102,2.91016 5.7696,4.42578 1.8984,1.5625 3.7265,3.16016 5.4961,4.78516 3.5039,-2.96094 7.2383,-5.77344 11.1562,-8.45312 0.9102,0.0898 1.8281,0.17187 2.7227,0.26953 3.2812,3.40234 6.3437,6.89062 9.1719,10.46093 4.0156,-2.45312 8.2304,-4.75 12.6093,-6.90234 0.7071,0.15625 1.3711,0.32422 2.0664,0.48828 2.7969,3.92578 5.3711,7.91797 7.7305,11.95703 4.5313,-1.98437 9.2422,-3.78906 14.082,-5.4414 0.3633,0.13672 0.6563,0.26953 1.0157,0.40625 2.3359,4.4375 4.4648,8.91406 6.375,13.41015 4.5742,-1.38672 9.2773,-2.59765 14.0625,-3.67187 0.6054,0.37109 1.6602,1.04996 2.1094,1.33902 0,0.37479 0.01,0.47688 0.01,0.8602 v 16.01172 c -1.2382,-4.20313 -2.5937,-8.41407 -4.1367,-12.625 -5.0976,1.19921 -10.0781,2.57812 -14.9179,4.14062 -1.8946,-4.66797 -4.0079,-9.31641 -6.3633,-13.92578 -4.9453,1.76172 -9.7344,3.70703 -14.336,5.82812 -2.4453,-4.38671 -5.1367,-8.71875 -8.0976,-12.97265 -4.6797,2.36328 -9.1524,4.91015 -13.3945,7.6289 -3.0235,-3.99218 -6.3204,-7.89453 -9.9063,-11.67968 -4.293,3 -8.332,6.17187 -12.0937,9.51953 -1.6797,-1.61719 -3.4258,-3.20703 -5.2344,-4.76953 -2.086,-1.79688 -4.2617,-3.54297 -6.5156,-5.23438 -3.75,3.66406 -7.1758,7.46485 -10.3008,11.375 -4.1602,-2.84765 -8.586,-5.5 -13.25,-7.9375 -3.0547,4.20313 -5.7969,8.50391 -8.25,12.85938 -4.5664,-2.15625 -9.3555,-4.10157 -14.3321,-5.8125 -2.3281,4.62109 -4.3632,9.28906 -6.125,13.96875 -4.8359,-1.46485 -9.8398,-2.69922 -14.9843,-3.6875 -1.2344,3.79297 -2.3008,7.58203 -3.2149,11.35937 v -16.10547 c 0.2852,-0.1875 0.8203,-0.5039 1.1719,-0.72656 4.7969,0.86328 9.4844,1.92188 14.0273,3.1875 1.7969,-4.50391 3.8516,-8.98828 6.1719,-13.43359 0.3711,-0.15625 0.7852,-0.30469 1.168,-0.45703 4.8594,1.58593 9.5547,3.3789 14.0508,5.37109 2.4648,-4.16016 5.207,-8.26172 8.2226,-12.28516 0.4336,-0.0976 0.8789,-0.19531 1.3203,-0.28906 4.5547,2.28516 8.9063,4.76172 13.0118,7.41797 3.0468,-3.62891 6.371,-7.15625 9.9609,-10.57422 0.6523,-0.0352 1.3125,-0.0547 1.9726,-0.082 z m -0.3593,9.76563 c 2.1914,1.69922 4.3047,3.45312 6.3281,5.2539 1.0312,0.91797 2.043,1.84375 3.0312,2.78125 -0.996,0.92969 -1.9726,1.875 -2.9257,2.82813 -1.8672,1.85937 -3.6485,3.75781 -5.3399,5.69531 -2.914,-2.59765 -6.0156,-5.08203 -9.2969,-7.4414 2.5352,-3.11719 5.2657,-6.16016 8.2032,-9.11719 z m 23.1758,0.46484 c 2.8203,3.05078 5.4492,6.17969 7.9023,9.3711 -3.3555,2.25 -6.5586,4.61328 -9.5859,7.08593 -2.4727,-3.01172 -5.1211,-5.95312 -7.9571,-8.8125 3.0391,-2.66015 6.2578,-5.21093 9.6407,-7.64453 z m -46.0665,2.875 c 3.6836,1.99219 7.211,4.1211 10.5704,6.37891 -2.4375,3.1914 -4.6719,6.44922 -6.7227,9.7539 -3.3164,-2.07031 -6.7969,-4.01562 -10.4219,-5.82421 1.9961,-3.48438 4.1875,-6.92188 6.5742,-10.3086 z m 68.7852,1.08203 c 2.3242,3.42578 4.4766,6.90235 6.4648,10.41407 -3.6601,1.76953 -7.1953,3.65234 -10.5859,5.64843 -2.0312,-3.35937 -4.2187,-6.67187 -6.5781,-9.92968 3.4219,-2.16016 6.9922,-4.20313 10.6992,-6.13282 z m -45.5664,0.5 c -2.0195,0.125 -3.5078,1.77735 -3.332,3.625 0.1757,1.84766 1.8593,3.20313 3.7734,3.08985 1.9141,-0.11719 3.418,-1.66407 3.3516,-3.52344 -0.07,-1.85547 -1.7735,-3.3125 -3.793,-3.1875 z m 21.6055,0.4336 c -1.6836,0.16015 -3.0391,1.41797 -3.1641,3.03515 -0.1367,1.84766 1.3047,3.44922 3.2188,3.63672 1.9179,0.19141 3.6562,-1.09765 3.8945,-2.93359 0.2344,-1.83594 -1.1992,-3.53516 -3.211,-3.73438 -0.25,-0.0273 -0.496,-0.0273 -0.7382,-0.004 z m -42.9375,2.68359 c -0.2422,0.008 -0.4883,0.0391 -0.7344,0.0977 -1.9688,0.44922 -3.1602,2.3164 -2.6797,4.11328 0.4766,1.79297 2.3672,2.85547 4.2383,2.42578 1.8711,-0.42969 3.0898,-2.20313 2.707,-4.01953 -0.3359,-1.58985 -1.8437,-2.67188 -3.5351,-2.61719 z m 64.9336,1.04688 c -1.6914,-0.0899 -3.2227,0.95703 -3.5899,2.53906 -0.4219,1.80859 0.7695,3.61328 2.6524,4.08203 1.8789,0.47266 3.8086,-0.55469 4.3086,-2.34375 0.5039,-1.78906 -0.6758,-3.67578 -2.6368,-4.16797 -0.2461,-0.0586 -0.4922,-0.0977 -0.7304,-0.10937 z m -32.5235,0.92968 c 3.5117,3.47657 6.7344,7.08594 9.6914,10.80078 3.6446,-3.07031 7.5469,-5.97656 11.6914,-8.71093 2.9297,3.97656 5.5977,8.04297 8.0196,12.17968 4.1015,-2.48828 8.4257,-4.80859 12.9375,-6.95312 2.3711,4.36328 4.4961,8.77734 6.4101,13.22656 4.4453,-1.9375 9.0664,-3.70312 13.836,-5.29297 1.8281,4.63672 3.4453,9.28907 4.875,13.9375 4.6757,-1.41797 9.4843,-2.66406 14.3945,-3.73828 0.5273,1.90625 1.0039,3.80469 1.4726,5.70703 v 11.22657 c -63.7968,-42.78516 -139.2656,-27.42188 -165.4531,2.49218 v -11.96093 c 0.4141,-2.69532 0.8828,-5.39844 1.4531,-8.1211 4.879,0.83203 9.6329,1.90235 14.2344,3.19531 1.168,-4.63671 2.5821,-9.29296 4.2696,-13.9375 4.7382,1.50782 9.3046,3.24219 13.6718,5.1836 1.8047,-4.41406 3.8789,-8.79688 6.2383,-13.12891 4.4649,2.1875 8.707,4.58203 12.7031,7.16797 2.4375,-4.06641 5.1563,-8.0625 8.1797,-11.95312 4.0469,2.86328 7.8281,5.91406 11.3164,9.13671 1.6328,-1.92968 3.3516,-3.82421 5.1563,-5.68359 1.5742,-1.625 3.207,-3.21875 4.9023,-4.77344 z m -56.2851,0.19141 c 3.9453,1.41797 7.7656,2.98047 11.4453,4.6875 -1.8946,3.53906 -3.6016,7.11328 -5.1289,10.71094 -3.6094,-1.54297 -7.3477,-2.94141 -11.1992,-4.19922 1.4453,-3.75 3.0664,-7.48828 4.8828,-11.19922 z m 112.7109,1.21875 c 1.8477,3.70703 3.5352,7.4375 5.082,11.18359 -3.8711,1.3125 -7.6445,2.74219 -11.3047,4.28516 -1.6015,-3.61719 -3.3476,-7.21094 -5.2539,-10.77344 3.711,-1.68359 7.543,-3.24609 11.4766,-4.69531 z m -109.4023,3.08594 c -0.4688,-0.004 -0.9493,0.0859 -1.418,0.27343 -1.8711,0.7461 -2.7578,2.77344 -2.0078,4.48047 0.7461,1.70703 2.7851,2.47266 4.5703,1.75782 1.7851,-0.71485 2.7187,-2.66016 2.0547,-4.40235 -0.5,-1.30469 -1.793,-2.10547 -3.1992,-2.10937 z m 106.1171,1.24218 c -1.414,0.0117 -2.7109,0.8125 -3.207,2.1211 -0.6601,1.74609 0.293,3.70312 2.1094,4.41797 1.8203,0.71484 3.8711,-0.0664 4.6016,-1.78516 0.7304,-1.71875 -0.1915,-3.74609 -2.0782,-4.48437 -0.4726,-0.1836 -0.957,-0.26954 -1.4258,-0.26954 z m -53.2617,0.25782 c -1.1758,-0.0195 -2.125,0.9375 -2.1289,2.11328 0,1.17578 0.9063,2.12109 2.0391,2.13672 1.1328,0.0117 2.0898,-0.90625 2.1367,-2.07813 0.043,-1.17187 -0.875,-2.15234 -2.0469,-2.17187 z m -20.3554,1.2539 c -1.1563,0.16797 -1.9375,1.26172 -1.7461,2.41797 0.1953,1.15625 1.2617,1.94531 2.3789,1.78516 1.1172,-0.16406 1.8945,-1.21875 1.7422,-2.38281 -0.1563,-1.16407 -1.2188,-1.99219 -2.375,-1.82032 z m 40.8007,0.73047 c -1.164,-0.20703 -2.2656,0.58203 -2.4531,1.73828 -0.1914,1.15625 0.5742,2.24219 1.7031,2.44141 1.1329,0.19922 2.2266,-0.55859 2.4532,-1.70703 0.2226,-1.15235 -0.5391,-2.26953 -1.7032,-2.47266 z m -97.2031,2.2461 c 4.0899,0.83984 8.086,1.83984 11.9727,2.98828 -1.3399,3.78906 -2.5078,7.58593 -3.5078,11.37109 -3.7891,-1.00781 -7.6797,-1.86719 -11.6524,-2.56641 0.8945,-3.91796 1.9531,-7.85546 3.1875,-11.79296 z m 154.168,0.78125 c 1.3945,3.89453 2.6484,7.79296 3.7812,11.68359 -3.9882,0.89062 -7.9062,1.89844 -11.7461,3.01562 -1.1992,-3.78515 -2.5234,-7.57421 -3.9882,-11.35156 3.8984,-1.23047 7.8867,-2.34765 11.9531,-3.34765 z m -116.8672,0.73046 c -0.2734,-0.0273 -0.5586,0 -0.8398,0.0859 -1.1211,0.35156 -1.7227,1.5625 -1.3477,2.67578 0.375,1.11328 1.5586,1.72266 2.6445,1.38282 1.086,-0.34375 1.6953,-1.51563 1.3555,-2.64063 -0.2539,-0.84375 -0.9883,-1.41797 -1.8125,-1.50391 z m 79.1875,1.19141 c -0.8359,0.0742 -1.582,0.63672 -1.8477,1.47656 -0.3476,1.125 0.2657,2.31641 1.375,2.67578 1.1133,0.35938 2.3164,-0.23828 2.6954,-1.35156 0.3828,-1.11719 -0.2266,-2.33203 -1.3711,-2.70312 -0.2852,-0.0899 -0.5704,-0.1211 -0.8516,-0.0977 z m -111.9063,1.05469 c -0.6835,-0.0312 -1.3945,0.1289 -2.0468,0.50781 -1.7344,1.00781 -2.3125,3.14453 -1.3282,4.73047 0.9844,1.58594 3.1016,2.05078 4.7579,1.08984 1.6601,-0.96484 2.2968,-3.03125 1.3867,-4.66015 -0.5703,-1.01953 -1.6328,-1.61328 -2.7696,-1.66797 z m 145.1211,0.95312 c -1.1484,0.0899 -2.1953,0.71875 -2.7343,1.75782 -0.8633,1.66015 -0.1407,3.71875 1.5898,4.63671 1.7383,0.92188 3.8711,0.375 4.793,-1.25781 0.9179,-1.6289 0.2344,-3.74609 -1.5625,-4.69922 -0.6719,-0.35547 -1.3946,-0.49218 -2.086,-0.4375 z m -131.5039,4.30078 c -0.2773,0.0156 -0.5547,0.0859 -0.8164,0.21485 -1.0664,0.51953 -1.4804,1.80078 -0.9453,2.85156 0.5352,1.05078 1.793,1.48047 2.8242,0.97656 1.0274,-0.5 1.461,-1.75781 0.9571,-2.82031 -0.3789,-0.80078 -1.1914,-1.26172 -2.0196,-1.22266 z m 117.8516,1.27344 c -0.8516,-0.0312 -1.6719,0.4375 -2.0352,1.2461 -0.4882,1.07421 -0.012,2.33984 1.0625,2.83593 1.0743,0.4961 2.3555,0.0469 2.8711,-1.01562 0.5118,-1.06641 0.039,-2.35547 -1.0586,-2.86328 -0.2734,-0.125 -0.5586,-0.19141 -0.8398,-0.20313 z m -54.8828,5.48828 c -9.3203,18.3125 -30.4024,29.70313 -33.1406,30.73047 4.7773,-6.13672 17.4921,-17.875 21.6328,-24.51562 1.4531,-2.32813 3.957,-6.5625 3.957,-6.5625 z m -18.4024,0.63672 c -0.9179,7.59375 -16.8476,19.81641 -22.4336,25.35547 -22.5468,16.21094 -38.3984,37.10156 -37.0664,59.62109 -5.5664,-5.36718 -15.9804,-17.80859 1.4258,-53.26171 -7.6523,5.84375 -13.9375,13.99218 -14.6875,23.1875 l 0.5274,-6.48047 c 0.8515,-10.41016 6.3359,-19.82813 15.4531,-27.58203 0,-0.004 0,-0.008 0.01,-0.008 4.7734,-3.60937 10.9727,-7.59375 18.3789,-11.21484 7.5313,-3.30859 16.1055,-5.94141 25.6211,-7.69922 5.9141,-1.09766 12.7734,-1.91797 12.7734,-1.91797 z m 34.8985,0.92578 c 0.1484,0.66797 1.3164,3.58594 2.4804,6.82813 3.0469,8.48828 11.0118,23.32031 18.8633,35.13281 6.6758,10.03906 6.7891,10.34766 6.0274,16.42969 -2.4922,19.91406 -15.3985,39.89844 -31.3594,48.5625 -27.4688,14.91015 -61.7266,-10.05469 -66.5938,-48.53516 -1.0781,-8.52344 0.8047,-10.92187 13.2032,-16.8164 21.5234,-8.09375 36.3281,-24.79297 49.6406,-42.36329 2.9922,0.25391 5.1836,0.42188 7.7383,0.76172 z m -96.6797,1.85547 c -0.2031,-0.0234 -0.4102,-0.0117 -0.6172,0.0274 -0.2695,0.0508 -0.5352,0.16015 -0.7812,0.32421 -0.9727,0.66016 -1.2071,1.99219 -0.5391,2.95704 0.6719,0.96484 1.9766,1.21875 2.9219,0.57812 0.9492,-0.64062 1.207,-1.95312 0.5625,-2.9375 -0.3633,-0.55469 -0.9375,-0.88281 -1.5469,-0.94922 z m 106.4922,0.47266 4.6133,0.75 c 2.539,0.41015 10.1132,3.42187 16.832,6.6914 20.8281,10.13282 32.0898,23.84375 31.8945,38.82422 l -0.055,4.20703 -2.2109,-5.66796 c -2.1914,-5.82813 -5.5898,-10.84375 -10.5117,-14.64063 5.6914,13.71094 9.7734,27.20313 3.8945,41.88281 -3.6992,7.4336 -4.75,7.66797 -5.0039,1.11328 -0.2852,-7.25781 -3.0781,-14.71875 -8.5156,-22.73046 -13.3281,-19.64454 -20.1289,-30.39063 -25.2735,-39.92579 z m 46.6679,0.42578 c -0.621,0.0898 -1.1914,0.44531 -1.5273,1.01953 -0.6016,1.01953 -0.2578,2.32813 0.7656,2.93359 1.0235,0.60938 2.3516,0.29688 2.9727,-0.70703 0.6211,-1.0039 0.2851,-2.33203 -0.7617,-2.95312 -0.2618,-0.15625 -0.5352,-0.25391 -0.8164,-0.29297 -0.211,-0.0312 -0.4258,-0.0312 -0.6329,0 z m -134.1445,57.11719 1.0235,5.30468 c 0.5585,2.91797 2.0585,8.00391 3.332,11.30469 1.3164,3.41016 1.5078,6.83985 1.4922,8.14453 -0.4063,5.58203 -1.1446,11.13672 -1.793,16.69532 l -4.7227,-3.03907 c -8.1601,-5.24609 -8.7656,-20.14453 -2.6093,-32.05859 z m 112.5039,1.76953 c 1.9571,0 5.1641,9.42187 5.7149,16.79687 0.3242,4.375 0.1211,7.91016 -0.4493,7.85938 -2.1679,-0.19922 -10.4609,-4.52344 -10.4218,-5.4375 0.1406,-3.11719 4.4609,-19.21875 5.1562,-19.21875 z m -7.2617,27.08594 c 0,0 7.3438,3.72265 11.5391,7.40625 12.9218,11.34765 13.6132,32.18359 1.3593,41.0664 -5.9961,4.34766 -6.2851,4.3086 -7.2656,-1.0039 -1.2109,-6.58204 -4.6484,-13.73047 -11.3047,-23.50391 -3.1328,-4.60156 -5.4609,-9.59375 -5.4609,-9.59375 1.5312,-1.90625 3.0859,-3.80469 4.1289,-5.73438 9,9.50782 14.7109,19.80079 18.8008,31.23438 1.0703,-14.56641 -2.6289,-27.09766 -12.668,-37.57422 0.3438,-0.82422 0.4688,-1.48828 0.8711,-2.29687 z m -94.9883,3.88281 11.836,14.04297 c 0,0 -8.9844,-2.42969 -13,-4.16407 z m 70.8008,20 c 0,0 1.1719,3.6289 -0.1602,6.17187 -1.3281,2.54297 -5.0703,3.91407 -8.5625,6.27735 -4.7343,3.20312 -11.2578,8.74609 -14.496,12.3164 -3.2422,3.57032 -6.6875,7.66016 -7.6602,9.08594 -1.75,2.56641 -2.3203,2.92578 -10.3047,-6.21484 l -8.3945,-9.60547 c 0,0 -0.4531,-11.60938 -0.4531,-17.13672 16.6328,8.74219 34.8007,10.68359 50.4648,-0.89453 z m -62.9297,26.66015 c -2.1211,0.0117 -0.5859,4.08204 6.1406,11.125 1.5196,1.58985 2.5196,3.8086 3.7266,4.48047 1.3203,0.73438 2.5117,-0.14843 4.1602,-0.14062 l 4.414,0.0234 -7.5898,-7.66016 c -5.3477,-5.40234 -9.2031,-7.83984 -10.8516,-7.82813 z m -15.9414,7.48829 c 2.8164,0 5.1016,2.28906 5.1016,5.10937 0,2.82031 -2.2852,5.10547 -5.1016,5.10547 -2.8203,0 -5.1055,-2.28516 -5.1055,-5.10547 0,-2.82031 2.2852,-5.10937 5.1055,-5.10937 z m 67.918,21.91406 c 0.9375,0.0156 1.6719,0.23047 2.1289,0.6875 1.9492,1.95312 1.789,16.02734 -0.2188,19.09375 -1.0976,1.67969 -1.8242,3.16797 -1.6093,3.30469 13.6484,0.58203 27.7656,0.0625 41.9921,-3.20704 -0.707,1.35157 -3.8984,12.19532 -16.289,15.67579 -7.0235,1.97265 -11.418,2.48046 -18.2461,1.57421 -3.8203,-0.50781 -18.2578,-4.99609 -18.2578,-5.67578 0,-0.23047 1.6015,-2.99609 3.5625,-6.14843 2.3398,-3.76563 3.789,-7.9375 4.2304,-12.16016 l 0.6719,-6.42969 -2.3789,3.53906 c -6.0351,8.97657 -25.5351,26.38672 -27.4336,24.48829 -1.5586,-1.5625 0.9024,-12.92188 3.8321,-17.66407 4.582,-7.41797 21.4335,-17.19531 28.0156,-17.07812 z m -41.0821,25.5039 c 1.4102,0.16407 0.4141,1.87891 -2.4648,6.06641 -4.8672,7.07422 -7.9453,15.17188 -8.918,23.45313 -0.8476,7.23828 -0.2812,7.70312 5.6211,4.64843 4.8008,-2.48437 5.2305,-1.62109 1.7422,3.52735 -1.6055,2.36328 -3.2617,5.875 -3.6836,7.79687 -0.9297,4.23828 -1.1953,4.2461 -6.7617,0.21485 -17.4922,-12.6875 -12.2461,-38.07813 9.2031,-44.53907 2.6992,-0.8125 4.4141,-1.26953 5.2617,-1.16797 z m -32.8828,35.44141 c 0.4375,-0.30078 1.3321,0.73828 2.6328,3.53125 4.5704,9.80078 15.4688,17.95703 26.7813,20.03906 4.1758,0.76953 4.2187,0.73828 3.6914,-2.84375 -1.6445,-11.21875 6.5625,-22.42578 14.2617,-19.46875 1.4336,0.55078 0.8906,2.16016 -1.7109,7.28516 -4.0547,8 -3.2266,15.13672 -2.6992,23.28516 -18.6289,3.4414 -34.418,-3.58594 -41.1328,-21.14063 -2.0196,-5.98047 -2.5547,-10.19141 -1.8243,-10.6875 z m 52.1797,9.1875 c 0.01,0.0273 0.3946,19.30859 5.6016,29.51953 1.5117,2.96485 3.043,6.3711 3.043,6.3711 0,0 -2.7305,-2.03516 -4.3282,-4.28125 -9.7734,-13.73438 -5.2617,-28.86719 -4.3164,-31.60938 z m -19.2148,31.59375 c 6.3203,0.94531 13.6133,3.14453 16.9883,9.05078 -6.9571,-2.63281 -14.1133,-5.16015 -21.1055,-7.90234 -2.3633,-0.92969 -3.0352,-1.98047 -3.0352,-1.98047 1.4493,0.0234 1.4375,-0.0234 7.1524,0.83203 z"
         fill-opacity="1"
         fill-rule="nonzero"
         id="path167"
         sodipodi:nodetypes="cssccccccccccccccccccccccccccsccccccccsccccccssscscccccsccccccccccccsccscccccccccccscccccccscccccscccscccccccccccccccccccccccccccccccccccccccccccccccccccccccccccccccccccccccccccscccccccccccccccccccccsccccsccccsscccscccsccccssccccccccccccccccccccccccccccccccccccscccccsccscccsccccccccccccccccccccscsccsssccccssccscccccscccccscccccscccccccccccccccccccccccccscccsscccssscccscccccccccccscccccccccccscccsccccccccccccccccccccccccscccccssssssscccccscscsccccccccscccccccccscccccscccccccc"
         style="fill:#ffffff" /><path
         id="path168"
         d="m 1130.1566,280.5077 c -3.75,3.66406 -7.1763,7.46443 -10.3013,11.37458 -4.1602,-2.84765 -8.5857,-5.49913 -13.2497,-7.93663 -3.0547,4.20313 -5.7974,8.5035 -8.2505,12.85897 -4.5664,-2.15625 -9.3557,-4.1011 -14.3323,-5.81203 -2.3281,4.62109 -4.3625,9.28865 -6.1243,13.96834 -4.8359,-1.46485 -9.8407,-2.69916 -14.9852,-3.68744 -1.2344,3.79297 -2.2994,7.58154 -3.2135,11.35888 v 14.71525 c 0.4141,-2.69532 0.8827,-5.39913 1.453,-8.12179 4.879,0.83203 9.632,1.90335 14.2335,3.19631 1.168,-4.63671 2.5821,-9.29399 4.2696,-13.93853 4.7382,1.50782 9.3046,3.24298 13.6718,5.18439 1.8047,-4.41406 3.8794,-8.79683 6.2388,-13.12886 4.4649,2.1875 8.7075,4.58181 12.7036,7.16775 2.4375,-4.06641 5.1565,-8.06296 8.1799,-11.95358 4.0469,2.86328 7.8266,5.91436 11.3149,9.13701 1.6328,-1.92968 3.353,-3.82399 5.1577,-5.68337 1.5742,-1.625 3.2067,-3.21858 4.902,-4.77327 3.5117,3.47657 6.7339,7.08543 9.6909,10.80027 3.6446,-3.07031 7.547,-5.97583 11.6915,-8.7102 2.9297,3.97656 5.5979,8.04283 8.0198,12.17954 4.1015,-2.48828 8.4257,-4.80826 12.9375,-6.95279 2.3711,4.36328 4.4958,8.77692 6.4098,13.22614 4.4453,-1.9375 9.067,-3.7028 13.8366,-5.29265 1.8281,4.63672 3.4455,9.28853 4.8752,13.93696 4.6757,-1.41797 9.4834,-2.66343 14.3936,-3.73765 0.5273,1.90625 1.0047,3.80456 1.4734,5.7069 v -10.99328 c -1.2382,-4.20313 -2.5948,-8.41267 -4.1378,-12.6236 -5.0976,1.19921 -10.0778,2.57684 -14.9176,4.13934 -1.8946,-4.66797 -4.0074,-9.31503 -6.3628,-13.9244 -4.9453,1.76172 -9.7339,3.70663 -14.3355,5.82772 -2.4453,-4.38671 -5.1374,-8.71961 -8.0983,-12.97351 -4.6797,2.36328 -9.1519,4.91033 -13.394,7.62908 -3.0235,-3.99218 -6.3216,-7.89384 -9.9075,-11.67899 -4.293,3 -8.3315,6.17221 -12.0932,9.51987 -1.6797,-1.61719 -3.426,-3.20763 -5.2346,-4.77013 -2.086,-1.79688 -4.2611,-3.54319 -6.515,-5.2346 z m 0.262,3.91026 c 2.1914,1.69922 4.3033,3.45264 6.3267,5.25342 1.0312,0.91797 2.0434,1.84456 3.0316,2.78206 -0.996,0.92969 -1.9718,1.87443 -2.9249,2.82756 -1.8672,1.85937 -3.6483,3.75842 -5.3397,5.69592 -2.914,-2.59765 -6.0158,-5.08298 -9.2971,-7.44235 2.5352,-3.11719 5.2659,-6.15958 8.2034,-9.11661 z m 23.176,0.46446 c 2.8203,3.05078 5.449,6.1794 7.9021,9.37081 -3.3555,2.25 -6.5585,4.61351 -9.5858,7.08616 -2.4727,-3.01172 -5.1226,-5.95282 -7.9586,-8.8122 3.0391,-2.66015 6.2594,-5.21117 9.6423,-7.64477 z m -46.0679,2.87463 c 3.6836,1.99219 7.2118,4.12225 10.5712,6.38006 -2.4375,3.1914 -4.6714,6.44899 -6.7222,9.75367 -3.3164,-2.07031 -6.7971,-4.01599 -10.4221,-5.82458 1.9961,-3.48438 4.1864,-6.92243 6.5731,-10.30915 z m 68.7857,1.0827 c 2.3242,3.42578 4.4765,6.90255 6.4647,10.41427 -3.6601,1.76953 -7.1947,3.65276 -10.5853,5.64885 -2.0312,-3.35937 -4.2183,-6.67318 -6.5777,-9.93099 3.4219,-2.16016 6.9913,-4.20244 10.6983,-6.13213 z m -45.5658,0.50055 c -2.0195,0.125 -3.5086,1.77703 -3.3328,3.62468 0.1757,1.84766 1.8596,3.20288 3.7737,3.0896 1.9141,-0.11719 3.418,-1.66331 3.3516,-3.52268 -0.07,-1.85547 -1.773,-3.31346 -3.7925,-3.18846 z m 21.6052,0.43308 c -1.6836,0.16015 -3.0399,1.4175 -3.1649,3.03468 -0.1367,1.84766 1.3058,3.44973 3.2199,3.63723 1.9179,0.19141 3.6562,-1.09832 3.8945,-2.93426 0.2344,-1.83594 -1.2002,-3.53373 -3.212,-3.73295 -0.25,-0.0273 -0.4953,-0.028 -0.7375,-0.005 z m -42.9422,2.6832 c -0.2407,0.008 -0.4851,0.0406 -0.7296,0.0989 -1.9688,0.44922 -3.1606,2.3158 -2.6801,4.11268 0.4766,1.79297 2.3671,2.85555 4.2382,2.42586 1.8711,-0.42969 3.0896,-2.20369 2.7068,-4.02009 -0.3356,-1.58834 -1.8411,-2.66979 -3.5306,-2.6173 v 0 z m 64.9382,1.0466 c -1.6914,-0.0899 -3.2229,0.95839 -3.5901,2.54042 -0.4219,1.80859 0.7689,3.61254 2.6518,4.08129 1.8789,0.47266 3.8088,-0.55521 4.3088,-2.34427 0.5039,-1.78906 -0.6751,-3.67541 -2.6361,-4.1676 -0.2461,-0.0586 -0.493,-0.0982 -0.7312,-0.10984 z m -88.8093,1.12193 c 3.9453,1.41797 7.7655,2.97994 11.4452,4.68697 -1.8946,3.53906 -3.6006,7.11318 -5.1279,10.71084 -3.6094,-1.54297 -7.3473,-2.94116 -11.1988,-4.19897 1.4453,-3.75 3.0651,-7.4879 4.8815,-11.19884 z m 112.7118,1.21921 c 1.8477,3.70703 3.5356,7.43705 5.0824,11.18314 -3.8711,1.3125 -7.6454,2.74231 -11.3056,4.28528 -1.6015,-3.61719 -3.3471,-7.2111 -5.2534,-10.7736 3.711,-1.68359 7.543,-3.2456 11.4766,-4.69482 z m -109.4025,3.0849 c -0.4688,-0.004 -0.9498,0.0871 -1.4185,0.27459 -1.8711,0.7461 -2.7569,2.77282 -2.0069,4.47985 0.7461,1.70703 2.7841,2.47226 4.5693,1.75742 1.7851,-0.71485 2.7196,-2.6592 2.0556,-4.40139 -0.5,-1.30469 -1.7933,-2.10657 -3.1995,-2.11047 z m 106.1167,1.24274 c -1.414,0.0117 -2.7112,0.81286 -3.2073,2.12146 -0.6601,1.74609 0.2941,3.70223 2.1105,4.41708 1.8203,0.71484 3.8702,-0.0653 4.6007,-1.78409 0.7304,-1.71875 -0.1908,-3.74628 -2.0775,-4.48456 -0.4726,-0.1836 -0.9576,-0.26989 -1.4264,-0.26989 z m -53.2607,0.25734 c -1.1758,-0.0195 -2.1254,0.93783 -2.1293,2.11361 0,1.17578 0.9055,2.12151 2.0383,2.13714 1.1328,0.0117 2.0902,-0.90721 2.1371,-2.07909 0.043,-1.17187 -0.8742,-2.15213 -2.0461,-2.17166 z m -20.3563,1.25373 c -1.1563,0.16797 -1.9378,1.26177 -1.7464,2.41802 0.1953,1.15625 1.2616,1.94581 2.3788,1.78566 1.1172,-0.16406 1.8956,-1.21944 1.7433,-2.3835 -0.1563,-1.16407 -1.2195,-1.99205 -2.3757,-1.82018 z m 40.8004,0.73121 c -1.164,-0.20703 -2.2651,0.58234 -2.4526,1.73859 -0.1914,1.15625 0.5736,2.24234 1.7025,2.44156 1.1329,0.19922 2.2275,-0.55877 2.4541,-1.70721 0.2226,-1.15235 -0.5399,-2.26981 -1.704,-2.47294 z m -97.2025,2.24542 c 4.0899,0.83984 8.0857,1.84074 11.9724,2.98918 -1.3399,3.78906 -2.507,7.58628 -3.507,11.37144 -3.7891,-1.00781 -7.6796,-1.86787 -11.6523,-2.56709 0.8945,-3.91796 1.9525,-7.85603 3.1869,-11.79353 z m 154.168,0.78142 c 1.3945,3.89453 2.6487,7.79307 3.7815,11.6837 -3.9882,0.89062 -7.9065,1.89867 -11.7464,3.01585 -1.1992,-3.78515 -2.5239,-7.57369 -3.9887,-11.35104 3.8984,-1.23047 7.8872,-2.34851 11.9536,-3.34851 z m -116.8668,0.73121 c -0.2734,-0.0273 -0.5599,-10e-4 -0.8411,0.0847 -1.1211,0.35156 -1.7213,1.56365 -1.3463,2.67693 0.375,1.11328 1.5581,1.72224 2.644,1.3824 1.086,-0.34375 1.6955,-1.51584 1.3557,-2.64084 -0.2539,-0.84375 -0.9881,-1.41728 -1.8123,-1.50322 z m 79.1874,1.19097 c -0.8359,0.0742 -1.5827,0.6367 -1.8484,1.47654 -0.3476,1.125 0.2668,2.31599 1.3761,2.67536 1.1133,0.35938 2.3152,-0.23774 2.6942,-1.35102 0.3828,-1.11719 -0.227,-2.33251 -1.3715,-2.7036 -0.2852,-0.0899 -0.5692,-0.12068 -0.8504,-0.0973 z m -111.9068,1.05445 c -0.6835,-0.0312 -1.3938,0.12948 -2.0461,0.50839 -1.7344,1.00781 -2.3134,3.14497 -1.3291,4.73091 0.9844,1.58594 3.1013,2.04991 4.7576,1.08897 1.6601,-0.96484 2.2972,-3.03139 1.3871,-4.66029 -0.5703,-1.01953 -1.6327,-1.61329 -2.7695,-1.66798 z m 145.1204,0.95402 c -1.1484,0.0899 -2.1944,0.71835 -2.7334,1.75742 -0.8633,1.66015 -0.141,3.7188 1.5895,4.63676 1.7383,0.92188 3.8718,0.37438 4.7937,-1.25843 0.9179,-1.6289 0.2341,-3.7464 -1.5628,-4.69953 -0.6719,-0.35547 -1.3956,-0.4909 -2.087,-0.43622 z m -131.5035,4.2994 c -0.2773,0.0156 -0.5543,0.086 -0.816,0.21497 -1.0664,0.51953 -1.4797,1.80189 -0.9446,2.85267 0.5352,1.05078 1.7917,1.47991 2.8229,0.976 1.0274,-0.5 1.461,-1.75722 0.9571,-2.81972 -0.3789,-0.80078 -1.1912,-1.26298 -2.0194,-1.22392 z m 117.8521,1.27413 c -0.8516,-0.0312 -1.6718,0.43729 -2.0351,1.24589 -0.4882,1.07421 -0.012,2.34088 1.0623,2.83697 1.0743,0.4961 2.3559,0.0457 2.8715,-1.01679 0.5118,-1.06641 0.038,-2.35584 -1.0592,-2.86365 -0.2734,-0.125 -0.5583,-0.1907 -0.8395,-0.20242 z m -135.067,8.90635 c -0.2031,-0.0234 -0.4097,-0.0124 -0.6167,0.0267 -0.2695,0.0508 -0.5354,0.16075 -0.7814,0.32481 -0.9727,0.66016 -1.2062,1.99295 -0.5382,2.9578 0.6719,0.96484 1.9764,1.21807 2.9217,0.57744 0.9492,-0.64062 1.2063,-1.95302 0.5618,-2.9374 -0.3633,-0.55469 -0.9378,-0.88291 -1.5472,-0.94932 z m 153.1606,0.89911 c -0.621,0.0898 -1.1908,0.44414 -1.5267,1.01836 -0.6016,1.01953 -0.2577,2.3288 0.7657,2.93426 1.0235,0.60938 2.3508,0.29624 2.9719,-0.70767 0.6211,-1.0039 0.2858,-2.33201 -0.761,-2.9531 -0.2618,-0.15625 -0.5363,-0.25279 -0.8175,-0.29185 -0.211,-0.0312 -0.4253,-0.0312 -0.6324,0 z"
         style="fill:#cf0000;fill-opacity:1" /><path
         id="path170"
         d="m 1130.778,274.65173 c 1.9766,1.4375 3.9102,2.91088 5.7696,4.4265 1.8984,1.5625 3.7255,3.16083 5.4951,4.78583 3.5039,-2.96094 7.2386,-5.77476 11.1565,-8.45444 z m 0,0 -1.974,0.0863 c 0.6523,-0.0352 1.3139,-0.0543 1.974,-0.0816 z m -1.974,0.0863 -22.972,3.15708 c 4.5547,2.28516 8.9057,4.761 13.0112,7.41725 3.0468,-3.62891 6.3709,-7.15636 9.9608,-10.57433 z m 27.1176,0.94148 c 3.2812,3.40234 6.3433,6.89104 9.1715,10.46135 4.0156,-2.45312 8.2306,-4.75024 12.6095,-6.90258 z m -51.4092,2.50432 -22.2737,6.91356 c 4.8594,1.58593 9.5538,3.37892 14.0499,5.37111 2.4648,-4.16016 5.2082,-8.26123 8.2238,-12.28467 z m 75.2567,1.54245 c 2.7969,3.92578 5.3717,7.91766 7.7311,11.95672 4.5313,-1.98437 9.2415,-3.78781 14.0813,-5.44015 z m -98.6994,5.82772 -20.1994,10.24638 c 4.7969,0.86328 9.4851,1.92284 14.028,3.18846 1.7969,-4.50391 3.8511,-8.98953 6.1714,-13.43484 z m 121.5286,1.09368 c 2.3359,4.4375 4.4636,8.91521 6.3738,13.4113 4.5742,-1.38672 9.2773,-2.59753 14.0625,-3.67175 z"
         style="fill:#cf0000;fill-opacity:1" /></g></g></svg>
